<svg width="66" height="58" viewBox="0 0 66 58" fill="none" xmlns="http://www.w3.org/2000/svg">
<path d="M14.801 27.3822C13.9466 25.8627 13.5173 24.088 13.6597 22.2269C14.0468 17.1666 18.513 13.382 23.6349 13.7739C28.757 14.1658 32.5953 18.5856 32.2082 23.646C31.8526 28.2936 28.0563 31.865 23.4711 32.113C19.2512 32.6305 14.23 32.5746 9.83281 30.592C5.12183 28.4681 1.44267 24.2734 0.129944 17.1673C-0.100788 15.9186 0.736464 14.7234 1.99956 14.4978C3.26288 14.2722 4.47394 15.1015 4.70468 16.3502C5.76661 22.0979 8.54369 24.9637 11.7568 26.4124C12.715 26.8442 13.7376 27.1614 14.801 27.3822Z" fill="#5FB451"/>
<path d="M46.699 5.85395C48.2621 6.62564 49.6184 7.84802 50.5517 9.46452C53.0892 13.8597 51.5398 19.5049 47.0911 22.0734C42.6423 24.6419 36.9788 23.1611 34.4412 18.7659C32.1106 14.7291 33.2275 9.63802 36.8719 6.8445C40.0627 4.03485 44.2386 1.2459 48.9872 0.399637C54.0747 -0.507203 59.4796 0.87762 64.5752 6.00153C65.4707 6.90193 65.4545 8.36105 64.5393 9.26043C63.624 10.1599 62.1562 10.1592 61.2608 9.25889C57.1391 5.11453 53.229 4.31718 49.759 4.9356C48.7244 5.12016 47.7013 5.43577 46.699 5.85395Z" fill="#FF6565"/>
<path d="M52.3008 40.145C51.5884 41.6681 50.4367 43.0143 48.8958 43.9752C44.7064 46.5877 39.226 45.3634 36.6551 41.2408C34.0842 37.118 35.3962 31.658 39.5856 29.0455C43.4334 26.646 48.3701 27.4831 51.1416 30.8297C53.9192 33.7435 56.6973 37.5965 57.6122 42.0815C58.5927 46.8865 57.3679 52.096 52.5281 57.1773C51.6776 58.0703 50.269 58.1197 49.3821 57.2882C48.495 56.4565 48.4654 55.0585 49.3158 54.1656C53.2304 50.0555 53.919 46.2959 53.2504 43.0185C53.0509 42.0414 52.7251 41.081 52.3008 40.145Z" fill="#EEEEEE"/>
</svg>
